<svg xmlns="http://www.w3.org/2000/svg" xmlns:xlink="http://www.w3.org/1999/xlink" id="Layer_1" x="0px" y="0px" viewBox="0 0 2506.67 1382.67" style="enable-background:new 0 0 2506.67 1382.67;" xml:space="preserve"><style type="text/css">	.st0{fill:none;stroke:#F4AC28;stroke-width:2;}	.st1{fill:none;stroke:#EF8023;stroke-width:2;}	.st2{fill:#1AACB6;}	.st3{fill:#F4AC28;}</style><path id="Path_198" class="st0" d="M2174.84,1180.7c-4.33,4.96-8.72,9.83-13.17,14.6c-169.69,181.7-416.14,192.83-602.21,143.36 c-218.19-58.02-442.13-165.88-582.3-356.35C874.09,842.26,756.81,733.74,597.94,688.75c-100.64-28.5-210.21-36.27-316.61-40.07 c-92.58-3.31-155.39-52.59-218.88-135.09c-81.58-105.99-29.93-228.06,81.54-290.53c205.86-115.36,395.9-58.76,594.81-23.07 c203.96,36.59,406.12,131.19,611.86,151.15c266.96,25.89,597.11-180.64,823.89,0.17C2391.51,524.3,2397.56,925.43,2174.84,1180.7z"></path><path id="Path_202" class="st1" d="M849.84,1131.58c93.37,69.44,230.92,70.69,343.05,21.03c115.48-51.14,198.2-157.29,311.34-213.91 c225.17-112.69,466.14,26.91,701.39-31.45c113.1-28.06,260.98-116.7,276.2-244.03c6.66-55.65-13.11-113.89-52.27-154 c-69.77-71.46-183.08-96.38-281.59-79.82c-136.13,22.88-254.98,44.45-392.67,7.53c-165.62-44.42-267.48-105.71-402.82-198.5 C1163.46,108.87,915.93,22.39,684.82,55.86c-107.45,15.56-212.71,62.56-284.94,143.61c-60.68,68.1-107.2,149.1-83.52,241.62 c23.28,90.97,126.79,154.52,199.16,205.42c55.64,39.13,116.94,78.33,158.02,133.67c51.19,68.95,60.85,156.62,90.23,235.18 C782.56,1065.59,812.7,1103.97,849.84,1131.58z"></path><path id="Path_200" class="st2" d="M831.53,12.92c-28.62,7.4-11.3,62.16,17.4,53.05c12.04-3.82,19.87-17.88,20.24-29.97 c0.52-17.24-15.77-24.13-31.21-23.9C835.79,12.12,833.63,12.39,831.53,12.92z"></path><path id="Path_205" class="st3" d="M1814.37,883.69c-28.62,7.4-11.3,62.16,17.4,53.05c12.04-3.82,19.87-17.88,20.24-29.97 c0.52-17.24-15.77-24.13-31.21-23.9C1818.63,882.89,1816.47,883.16,1814.37,883.69z"></path></svg>